<svg width="50" height="50" fill="none" xmlns="http://www.w3.org/2000/svg"><g clip-path="url(#clip0_2_7436)"><rect width="5" height="12" rx="2.5" transform="scale(-1 1) rotate(-45 27.627 42.556)" fill="#4633B9"/><rect width="5" height="12" rx="2.5" transform="scale(-1 1) rotate(-45 27.627 42.556)" fill="#1767F9"/><rect width="5" height="12" rx="2.5" transform="scale(-1 1) rotate(-45 27.627 42.556)" fill="#4BB1BC"/><rect width="5" height="12" rx="2.5" transform="scale(-1 1) rotate(-45 27.627 42.556)" fill="url(#paint0_radial_2_7436)"/><rect width="5" height="12" rx="2.5" transform="scale(-1 1) rotate(-45 27.627 42.556)" fill="url(#paint1_radial_2_7436)" fill-opacity=".5"/><rect width="5" height="12" rx="2.5" transform="scale(-1 1) rotate(-45 27.627 42.556)" fill="url(#paint2_linear_2_7436)"/><path fill-rule="evenodd" clip-rule="evenodd" d="M12.636 34.636a3.728 3.728 0 00-5.272 0l-5.85 5.85a5 5 0 107.072 7.07l5.85-5.849a3.728 3.728 0 000-5.272l-1.8-1.8z" fill="#4633B9"/><path fill-rule="evenodd" clip-rule="evenodd" d="M12.636 34.636a3.728 3.728 0 00-5.272 0l-5.85 5.85a5 5 0 107.072 7.07l5.85-5.849a3.728 3.728 0 000-5.272l-1.8-1.8z" fill="#1767F9"/><path fill-rule="evenodd" clip-rule="evenodd" d="M12.636 34.636a3.728 3.728 0 00-5.272 0l-5.85 5.85a5 5 0 107.072 7.07l5.85-5.849a3.728 3.728 0 000-5.272l-1.8-1.8z" fill="#4BB1BC"/><path fill-rule="evenodd" clip-rule="evenodd" d="M12.636 34.636a3.728 3.728 0 00-5.272 0l-5.85 5.85a5 5 0 107.072 7.07l5.85-5.849a3.728 3.728 0 000-5.272l-1.8-1.8z" fill="url(#paint3_radial_2_7436)"/><path fill-rule="evenodd" clip-rule="evenodd" d="M12.636 34.636a3.728 3.728 0 00-5.272 0l-5.85 5.85a5 5 0 107.072 7.07l5.85-5.849a3.728 3.728 0 000-5.272l-1.8-1.8z" fill="url(#paint4_radial_2_7436)" fill-opacity=".5"/><path fill-rule="evenodd" clip-rule="evenodd" d="M12.636 34.636a3.728 3.728 0 00-5.272 0l-5.85 5.85a5 5 0 107.072 7.07l5.85-5.849a3.728 3.728 0 000-5.272l-1.8-1.8z" fill="url(#paint5_linear_2_7436)"/><path d="M33.783 3.426a17 17 0 10-7.566 33.148 17 17 0 007.566-33.148z" fill="#4633B9"/><path d="M33.783 3.426a17 17 0 10-7.566 33.148 17 17 0 007.566-33.148z" fill="#1767F9"/><path d="M33.783 3.426a17 17 0 10-7.566 33.148 17 17 0 007.566-33.148z" fill="#4BB1BC"/><path d="M33.783 3.426a17 17 0 10-7.566 33.148 17 17 0 007.566-33.148z" fill="url(#paint6_radial_2_7436)"/><path d="M33.783 3.426a17 17 0 10-7.566 33.148 17 17 0 007.566-33.148z" fill="url(#paint7_radial_2_7436)" fill-opacity=".5"/><path d="M33.783 3.426a17 17 0 10-7.566 33.148 17 17 0 007.566-33.148z" fill="url(#paint8_radial_2_7436)"/><path d="M32.948 8.776a11 11 0 10-4.896 21.448 11 11 0 004.896-21.448z" stroke="#4633B9" stroke-width="3"/><path d="M32.948 8.776a11 11 0 10-4.896 21.448 11 11 0 004.896-21.448z" stroke="#1767F9" stroke-width="3"/><path d="M32.948 8.776a11 11 0 10-4.896 21.448 11 11 0 004.896-21.448z" stroke="#4BB1BC" stroke-width="3"/><path d="M32.948 8.776a11 11 0 10-4.896 21.448 11 11 0 004.896-21.448z" stroke="url(#paint9_radial_2_7436)" stroke-width="3"/><path d="M32.948 8.776a11 11 0 10-4.896 21.448 11 11 0 004.896-21.448z" stroke="url(#paint10_radial_2_7436)" stroke-opacity=".5" stroke-width="3"/><path d="M32.948 8.776a11 11 0 10-4.896 21.448 11 11 0 004.896-21.448z" stroke="url(#paint11_radial_2_7436)" stroke-width="3"/><path d="M32.782 7.813a12.5 12.5 0 10-5.563 24.373 12.5 12.5 0 005.563-24.373z" fill="#4633B9"/><path d="M32.782 7.813a12.5 12.5 0 10-5.563 24.373 12.5 12.5 0 005.563-24.373z" fill="#1767F9"/><path d="M32.782 7.813a12.5 12.5 0 10-5.563 24.373 12.5 12.5 0 005.563-24.373z" fill="#4BB1BC"/><path d="M32.782 7.813a12.5 12.5 0 10-5.563 24.373 12.5 12.5 0 005.563-24.373z" fill="url(#paint12_radial_2_7436)"/><path d="M32.782 7.813a12.5 12.5 0 10-5.563 24.373 12.5 12.5 0 005.563-24.373z" fill="url(#paint13_radial_2_7436)" fill-opacity=".5"/><path d="M32.782 7.813a12.5 12.5 0 10-5.563 24.373 12.5 12.5 0 005.563-24.373z" fill="url(#paint14_linear_2_7436)"/><path d="M32.782 7.813a12.5 12.5 0 10-5.563 24.373 12.5 12.5 0 005.563-24.373z" stroke="#000" stroke-width="3"/></g><defs><radialGradient id="paint0_radial_2_7436" cx="0" cy="0" r="1" gradientUnits="userSpaceOnUse" gradientTransform="matrix(-1.33332 6.28571 -3.72446 -.79003 3 8.857)"><stop stop-color="#FF8A1E"/><stop offset="1" stop-color="#EF4141"/></radialGradient><radialGradient id="paint1_radial_2_7436" cx="0" cy="0" r="1" gradientUnits="userSpaceOnUse" gradientTransform="rotate(-133.85 2.532 2.55) scale(7.92381 12.8151)"><stop stop-color="#FFA901"/><stop offset="1" stop-color="#FFC701" stop-opacity="0"/></radialGradient><radialGradient id="paint3_radial_2_7436" cx="0" cy="0" r="1" gradientUnits="userSpaceOnUse" gradientTransform="matrix(-8.18223 4.41102 -3.53856 -6.56385 5.37 45.115)"><stop stop-color="#FF8A1E"/><stop offset="1" stop-color="#EF4141"/></radialGradient><radialGradient id="paint4_radial_2_7436" cx="0" cy="0" r="1" gradientUnits="userSpaceOnUse" gradientTransform="matrix(-2.03901 -13.48744 20.85512 -3.15285 7.307 41.614)"><stop stop-color="#FFA901"/><stop offset="1" stop-color="#FFC701" stop-opacity="0"/></radialGradient><radialGradient id="paint6_radial_2_7436" cx="0" cy="0" r="1" gradientUnits="userSpaceOnUse" gradientTransform="matrix(9.29981 18.26751 -21.55902 10.97549 26.513 28.303)"><stop stop-color="#FF8A1E"/><stop offset="1" stop-color="#EF4141"/></radialGradient><radialGradient id="paint7_radial_2_7436" cx="0" cy="0" r="1" gradientUnits="userSpaceOnUse" gradientTransform="rotate(-23.448 64.371 -62.961) scale(41.7344 49.3202)"><stop stop-color="#FFA901"/><stop offset="1" stop-color="#FFC701" stop-opacity="0"/></radialGradient><radialGradient id="paint8_radial_2_7436" cx="0" cy="0" r="1" gradientUnits="userSpaceOnUse" gradientTransform="matrix(44.96766 -8.34482 7.18288 38.70636 30.369 18.754)"><stop stop-color="#FFDF35"/><stop offset="1" stop-color="#FF8A01" stop-opacity="0"/></radialGradient><radialGradient id="paint9_radial_2_7436" cx="0" cy="0" r="1" gradientUnits="userSpaceOnUse" gradientTransform="rotate(63.02 -6.916 35.587) scale(15.0724 17.7882)"><stop stop-color="#FF8A1E"/><stop offset="1" stop-color="#EF4141"/></radialGradient><radialGradient id="paint10_radial_2_7436" cx="0" cy="0" r="1" gradientUnits="userSpaceOnUse" gradientTransform="matrix(28.1529 -12.21092 14.43042 33.27009 30.771 19.805)"><stop stop-color="#FFA901"/><stop offset="1" stop-color="#FFC701" stop-opacity="0"/></radialGradient><radialGradient id="paint11_radial_2_7436" cx="0" cy="0" r="1" gradientUnits="userSpaceOnUse" gradientTransform="matrix(23.59222 -4.76594 4.10234 20.30728 30.771 18.584)"><stop stop-color="#FFDF35"/><stop offset="1" stop-color="#FF8A01" stop-opacity="0"/></radialGradient><radialGradient id="paint12_radial_2_7436" cx="0" cy="0" r="1" gradientUnits="userSpaceOnUse" gradientTransform="rotate(63.02 -8.15 35.518) scale(16.4579 19.4233)"><stop stop-color="#FF8A1E"/><stop offset="1" stop-color="#EF4141"/></radialGradient><radialGradient id="paint13_radial_2_7436" cx="0" cy="0" r="1" gradientUnits="userSpaceOnUse" gradientTransform="rotate(-23.448 64.137 -62.827) scale(33.5078 39.5983)"><stop stop-color="#FFA901"/><stop offset="1" stop-color="#FFC701" stop-opacity="0"/></radialGradient><linearGradient id="paint2_linear_2_7436" x1="4.159" y1="0" x2="-6.778" y2="8.561" gradientUnits="userSpaceOnUse"><stop stop-color="#FFDF35"/><stop offset="1" stop-color="#FF8A01" stop-opacity="0"/></linearGradient><linearGradient id="paint5_linear_2_7436" x1="15.881" y1="37.881" x2="-7.758" y2="39.062" gradientUnits="userSpaceOnUse"><stop stop-color="#FFDF35"/><stop offset="1" stop-color="#FF8A01" stop-opacity="0"/></linearGradient><linearGradient id="paint14_linear_2_7436" x1="26.5" y1="14.5" x2="34.666" y2="25.742" gradientUnits="userSpaceOnUse"><stop stop-color="#FFDF35"/><stop offset="1" stop-color="#FFDF35" stop-opacity="0"/></linearGradient><clipPath id="clip0_2_7436"><path fill="#fff" transform="matrix(-1 0 0 1 50 0)" d="M0 0h50v50H0z"/></clipPath></defs></svg>