<svg width="53" height="54" fill="none" xmlns="http://www.w3.org/2000/svg"><path d="M17.96 37.96l-2.97-2.97L40.954 9.026l1.087-3.067 6.183-4.203 2.97 2.97-4.203 6.183-3.067 1.087L17.96 37.96z" fill="#000"/><path fill-rule="evenodd" clip-rule="evenodd" d="M25.546 20.546l-2.513.263A9.014 9.014 0 0017.6 23.4L6.737 34.264A9 9 0 1019.465 46.99l10.863-10.863a9.014 9.014 0 002.59-5.433l.264-2.513-7.636-7.636z" fill="#4633B9"/><path fill-rule="evenodd" clip-rule="evenodd" d="M25.546 20.546l-2.513.263A9.014 9.014 0 0017.6 23.4L6.737 34.264A9 9 0 1019.465 46.99l10.863-10.863a9.014 9.014 0 002.59-5.433l.264-2.513-7.636-7.636z" fill="#1767F9"/><path fill-rule="evenodd" clip-rule="evenodd" d="M25.546 20.546l-2.513.263A9.014 9.014 0 0017.6 23.4L6.737 34.264A9 9 0 1019.465 46.99l10.863-10.863a9.014 9.014 0 002.59-5.433l.264-2.513-7.636-7.636z" fill="#4BB1BC"/><path fill-rule="evenodd" clip-rule="evenodd" d="M25.546 20.546l-2.513.263A9.014 9.014 0 0017.6 23.4L6.737 34.264A9 9 0 1019.465 46.99l10.863-10.863a9.014 9.014 0 002.59-5.433l.264-2.513-7.636-7.636z" fill="#FFA300"/><path fill-rule="evenodd" clip-rule="evenodd" d="M25.546 20.546l-2.513.263A9.014 9.014 0 0017.6 23.4L6.737 34.264A9 9 0 1019.465 46.99l10.863-10.863a9.014 9.014 0 002.59-5.433l.264-2.513-7.636-7.636z" fill="url(#paint0_linear_2_7401)"/><path d="M31.465 18.465c-1.966-1.966-5.162-1.113-5.583 1.488l7.65 7.65c2.602-.42 3.454-3.617 1.489-5.582l-3.556-3.556z" fill="#FFA300"/><rect x="21" y="27" width="2" height="18" rx="1" transform="rotate(45 21 27)" fill="#000"/><rect x="25" y="31" width="2" height="18" rx="1" transform="rotate(45 25 31)" fill="#000"/><defs><linearGradient id="paint0_linear_2_7401" x1="24.414" y1="42.042" x2="11.686" y2="29.314" gradientUnits="userSpaceOnUse"><stop stop-color="#FC0"/><stop offset="1" stop-color="#FFA300"/></linearGradient></defs></svg>