<svg width="46" height="50" fill="none" xmlns="http://www.w3.org/2000/svg"><path d="M45.922 12.25a2.466 2.466 0 00-.437-1.17 2.53 2.53 0 00-.96-.817L24.139.264a2.59 2.59 0 00-2.28 0l-20.387 10a2.54 2.54 0 00-.956.817c-.244.348-.394.75-.437 1.17-.028.267-2.45 26.914 21.886 37.53a2.556 2.556 0 002.07 0c24.335-10.616 21.915-37.26 21.887-37.53z" fill="#4633B9"/><path d="M45.922 12.25a2.466 2.466 0 00-.437-1.17 2.53 2.53 0 00-.96-.817L24.139.264a2.59 2.59 0 00-2.28 0l-20.387 10a2.54 2.54 0 00-.956.817c-.244.348-.394.75-.437 1.17-.028.267-2.45 26.914 21.886 37.53a2.556 2.556 0 002.07 0c24.335-10.616 21.915-37.26 21.887-37.53z" fill="#1767F9"/><path d="M45.922 12.25a2.466 2.466 0 00-.437-1.17 2.53 2.53 0 00-.96-.817L24.139.264a2.59 2.59 0 00-2.28 0l-20.387 10a2.54 2.54 0 00-.956.817c-.244.348-.394.75-.437 1.17-.028.267-2.45 26.914 21.886 37.53a2.556 2.556 0 002.07 0c24.335-10.616 21.915-37.26 21.887-37.53z" fill="#4BB1BC"/><path d="M45.922 12.25a2.466 2.466 0 00-.437-1.17 2.53 2.53 0 00-.96-.817L24.139.264a2.59 2.59 0 00-2.28 0l-20.387 10a2.54 2.54 0 00-.956.817c-.244.348-.394.75-.437 1.17-.028.267-2.45 26.914 21.886 37.53a2.556 2.556 0 002.07 0c24.335-10.616 21.915-37.26 21.887-37.53z" fill="url(#paint0_radial_2_7413)"/><path d="M45.922 12.25a2.466 2.466 0 00-.437-1.17 2.53 2.53 0 00-.96-.817L24.139.264a2.59 2.59 0 00-2.28 0l-20.387 10a2.54 2.54 0 00-.956.817c-.244.348-.394.75-.437 1.17-.028.267-2.45 26.914 21.886 37.53a2.556 2.556 0 002.07 0c24.335-10.616 21.915-37.26 21.887-37.53z" fill="url(#paint1_radial_2_7413)" fill-opacity=".5"/><path d="M45.922 12.25a2.466 2.466 0 00-.437-1.17 2.53 2.53 0 00-.96-.817L24.139.264a2.59 2.59 0 00-2.28 0l-20.387 10a2.54 2.54 0 00-.956.817c-.244.348-.394.75-.437 1.17-.028.267-2.45 26.914 21.886 37.53a2.556 2.556 0 002.07 0c24.335-10.616 21.915-37.26 21.887-37.53z" fill="url(#paint2_linear_2_7413)"/><path d="M41.441 14.688v-.004a.639.639 0 00-.111-.3l1.233-.855-1.233.854a.652.652 0 00-.247-.213h-.002l-17.283-8.6h0a.669.669 0 00-.597 0h0L5.918 14.168s0 0 0 0a.661.661 0 00-.36.518v.004m35.882-.002l-35.88.002h0m35.882-.002v.002c.005.053.126 1.437.007 3.621a37.429 37.429 0 01-1.484 8.596C37.99 33.508 33.582 41.1 23.77 45.441l-.007.003a.64.64 0 01-.526 0l-.007-.004m18.21-30.751L23.23 45.44M5.559 14.69v.002m0-.002v.002m17.67 30.748C13.42 41.1 9.01 33.508 7.037 26.907M23.23 45.44L7.036 26.907m0 0a37.435 37.435 0 01-1.484-8.597m1.484 8.597L5.552 18.31m0 0c-.118-2.178.001-3.559.006-3.618m-.006 3.618l.006-3.618" stroke="#FFC530" stroke-width="3"/><path d="M39.446 14.948v.006c.005.058.115 1.337.006 3.354a34.968 34.968 0 01-1.366 7.974c-1.816 6.123-5.87 13.152-14.887 17.173l-.008.004a.463.463 0 01-.382 0l-.008-.004c-9.016-4.02-13.07-11.05-14.887-17.173-1.825-6.15-1.362-11.308-1.36-11.329h0v-.003a.507.507 0 01.273-.4s0 0 0 0L22.78 6.552h0a.49.49 0 01.44 0h0l15.954 8h.002a.492.492 0 01.186.162l1.236-.85-1.236.85a.5.5 0 01.085.234zM23.81 44.825C42.855 36.332 40.96 15.016 40.938 14.8H5.061c-.021.214-1.916 21.532 17.13 30.025a1.965 1.965 0 001.619 0z" stroke="#000" stroke-width="3"/><path d="M15 22.659L20.919 28 32 18" stroke="#000" stroke-width="3"/><defs><radialGradient id="paint0_radial_2_7413" cx="0" cy="0" r="1" gradientUnits="userSpaceOnUse" gradientTransform="matrix(-12.26682 26.19042 -29.36506 -13.75372 27.6 36.905)"><stop stop-color="#FF8A1E"/><stop offset="1" stop-color="#EF4141"/></radialGradient><radialGradient id="paint1_radial_2_7413" cx="0" cy="0" r="1" gradientUnits="userSpaceOnUse" gradientTransform="matrix(-50.5025 -23.8099 29.73012 -63.05969 22.513 25.595)"><stop stop-color="#FFA901"/><stop offset="1" stop-color="#FFC701" stop-opacity="0"/></radialGradient><linearGradient id="paint2_linear_2_7413" x1="38.26" y1="0" x2="-2.435" y2="70.338" gradientUnits="userSpaceOnUse"><stop stop-color="#FFDF35"/><stop offset="1" stop-color="#FF8A01" stop-opacity="0"/></linearGradient></defs></svg>